<?xml version="1.0" encoding="UTF-8" standalone="no"?>
<svg xmlns:svg="http://www.w3.org/2000/svg" xmlns="http://www.w3.org/2000/svg" viewBox="0 0 22.620001 22.620001"
  enable-background="new 0 0 512 512">
  <g transform="translate(11.31,11.31)">
    <path
      d="M 0,6 C -3.3099999,6 -6,3.3099999 -6,0 -6,-3.3099999 -3.3099999,-6 0,-6 3.3099999,-6 6,-3.3099999 6,0 6,3.3099999 3.3099999,6 0,6 Z M 8,-3.3099999 C 8,-3.3099999 8,-8 8,-8 8,-8 3.3099999,-8 3.3099999,-8 3.3099999,-8 0,-11.31 0,-11.31 0,-11.31 -3.3099999,-8 -3.3099999,-8 -3.3099999,-8 -8,-8 -8,-8 c 0,0 0,4.6900001 0,4.6900001 C -8,-3.3099999 -11.31,0 -11.31,0 -11.31,0 -8,3.3099999 -8,3.3099999 -8,3.3099999 -8,8 -8,8 -8,8 -3.3099999,8 -3.3099999,8 -3.3099999,8 0,11.31 0,11.31 0,11.31 3.3099999,8 3.3099999,8 3.3099999,8 8,8 8,8 8,8 8,3.3099999 8,3.3099999 8,3.3099999 11.31,0 11.31,0 11.31,0 8,-3.3099999 8,-3.3099999 Z"
      id="path5155" />
  </g>
</svg>